<svg width="33" height="33" viewBox="0 0 33 33" fill="none" xmlns="http://www.w3.org/2000/svg">
<g clip-path="url(#clip0_1216_1596)">
<path fill-rule="evenodd" clip-rule="evenodd" d="M7.5225 26.4351C7.5225 26.4351 7.18996 26.7774 6.89818 27.0767C6.62142 27.361 6.46694 27.7421 6.46694 28.1383V28.429C6.46694 28.8747 6.29102 29.3054 5.97565 29.6219C5.15395 30.4488 3.59208 32.0229 3.59208 32.0229C3.17801 32.447 1.732 33.177 0.579905 32.0229C-0.38768 31.0496 0.167984 29.5509 0.579905 29.1267C0.579905 29.1267 2.14821 27.5031 3.0214 26.5987C3.38612 26.2197 3.88814 26.0066 4.41377 26.0066C4.41806 26.0066 4.42236 26.0066 4.42665 26.0066C4.7549 26.0066 5.07027 25.8731 5.29983 25.6383C5.61092 25.3175 6.01426 24.9019 6.01426 24.9019C3.76371 22.2663 2.40351 18.8426 2.40351 15.1023C2.40351 6.78416 9.13371 0.0292969 17.4215 0.0292969C25.7093 0.0292969 32.4395 6.78416 32.4395 15.1023C32.4395 23.4205 25.7093 30.1753 17.4215 30.1753C13.6305 30.1753 10.1678 28.7628 7.5225 26.4351ZM17.4215 2.18258C10.318 2.18258 4.54894 7.97278 4.54894 15.1023C4.54894 22.2318 10.318 28.022 17.4215 28.022C24.525 28.022 30.294 22.2318 30.294 15.1023C30.294 7.97278 24.525 2.18258 17.4215 2.18258Z" fill="#B0B0B0"/>
</g>
<defs>
<clipPath id="clip0_1216_1596">
<rect width="32.4495" height="32.7031" fill="white" transform="translate(0.0332031)"/>
</clipPath>
</defs>
</svg>
